<svg width="50" height="50" viewBox="0 0 50 50" fill="none" xmlns="http://www.w3.org/2000/svg">
<circle cx="25" cy="25" r="25" fill="#F4F5F8"/>
<path d="M34.6113 11.2314H15.3886C13.0919 11.2314 11.23 13.0933 11.23 15.3901V34.6106C11.23 36.9073 13.0919 38.7691 15.3886 38.7691H34.6112C36.908 38.7691 38.7699 36.9072 38.7699 34.6106V15.3902C38.77 13.0934 36.908 11.2314 34.6113 11.2314Z" fill="#1D8CB5"/>
<path opacity="0.7811" d="M31.4937 12.4092H18.506C15.068 12.4092 12.3003 15.1994 12.3003 18.6652V31.3364C12.4116 34.0419 12.8397 32.3314 13.6544 29.3354C14.6014 25.8534 17.6852 22.8102 21.4409 20.5293C24.3074 18.7885 27.5159 17.6769 33.3564 17.5711C36.6687 17.5112 36.3764 13.2723 31.4937 12.4092Z" fill="url(#paint0_linear)"/>
<path d="M19.5632 34.3467V21.8931H15.4242V34.3467H19.5632ZM17.4945 20.1927C18.9369 20.1927 19.836 19.2363 19.836 18.0411C19.8093 16.8193 18.9369 15.8895 17.5216 15.8895C16.1051 15.8895 15.1797 16.8193 15.1797 18.0411C15.1797 19.2363 16.0776 20.1927 17.4672 20.1927H17.4945Z" fill="white"/>
<path d="M21.854 34.3467H25.9937V27.3921C25.9937 27.0197 26.0207 26.6477 26.1302 26.3818C26.4287 25.6377 27.1103 24.8678 28.2535 24.8678C29.7515 24.8678 30.3503 26.0101 30.3503 27.684V34.3467H34.4892V27.2057C34.4892 23.3805 32.4476 21.6007 29.7238 21.6007C27.4911 21.6007 26.5104 22.8483 25.9658 23.6985H25.9937V21.8931H21.854C21.9089 23.0615 21.854 34.3467 21.854 34.3467Z" fill="white"/>
<defs>
<linearGradient id="paint0_linear" x1="18.234" y1="7.18429" x2="21.8174" y2="17.6295" gradientUnits="userSpaceOnUse">
<stop stop-color="white"/>
<stop offset="1" stop-color="white" stop-opacity="0"/>
</linearGradient>
</defs>
</svg>
